<?xml version="1.0" encoding="utf-8"?>
<!-- Generator: Adobe Illustrator 21.0.2, SVG Export Plug-In . SVG Version: 6.00 Build 0)  -->
<svg version="1.1" id="Layer_1" xmlns="http://www.w3.org/2000/svg" xmlns:xlink="http://www.w3.org/1999/xlink" x="0px" y="0px"
	 viewBox="0 0 178.6 173.7" style="enable-background:new 0 0 178.6 173.7;" xml:space="preserve">
<style type="text/css">
	.st0{display:none;fill:#FDFDFD;}
	.st1{fill:#0B0B0B;}
	.st2{fill:#FFC0F2;}
	.st3{fill:#FCFCFC;}
	.st4{display:none;fill:#FCFCFC;}
	.st5{fill:#ED002B;}
	.st6{fill:#FDFDFD;}
	.st7{fill:#020020;}
	.st8{fill:#03001E;}
</style>
<g>
	<path class="st0" d="M89.3,173.6c-29.1,0-58.1,0-87.1,0.1c-1.8,0-2.2-0.4-2.2-2.1C0.1,115.1,0.1,58.6,0,2.1C0,0.4,0.4,0,2.1,0
		c58.1,0.1,116.2,0.1,174.3,0c1.8,0,2.2,0.4,2.2,2.1c-0.1,56.5-0.1,112.9,0,169.4c0,1.8-0.4,2.1-2.1,2.1
		C147.3,173.6,118.3,173.6,89.3,173.6z M142.8,120.5c6,2.1,11.3,1.2,15.8-3.4c4.2-4.4,4.9-10.3,1.9-16.1c-1-1.8,0.5-1.6,1.1-2
		c8.6-4.7,10.2-15.7,3.1-22.4c-1.2-1.1-1.4-1.5,0-2.7c8.4-7.2,5.6-20.2-4.8-23.7c-1.3-0.5-1.7-0.8-1.5-2.2
		c1.2-8.5-5.1-15.7-13.9-15.7c-1.4,0-1.8-0.4-2.2-1.7c-2.2-7.7-9.1-11.8-17-10c-1.1,0.3-1.5,0.3-2.1-0.8
		c-4.7-9.7-15.3-11.5-23.1-3.9c-0.9,0.8-1.1,0.7-2,0.1c-5.5-4.5-11-4.9-17-1.2c-1.4,0.8-2.3,0.7-3.3-0.5c-2.6-2.8-5.5-5.2-9.2-6.5
		c-2.5-0.9-4.9-2.1-7.8-1.6c-6.7,1.4-12.1,5.1-16.1,10.5c-1.3,1.8-2.7,2.3-4.9,2.4c-10.7,0.6-19.2,8.9-17.3,18.5
		c0.2,1.1-0.4,1.5-1.1,2.1c-6.8,5.2-11.8,11.8-15,19.6C4.1,64.9,2.7,70.6,4,76.7c1.4,6,5.2,8.9,11.5,8.9c0.8,0,1.5-0.1,2.1,0.7
		c1.6,2.2,3.9,3.6,6.4,4.8c-3.2,5.5-3.5,11,0.4,16.1c4.5,5.8,10.5,6.8,17.3,4.4c-0.4,4.5,0.9,8.1,3.8,11.3c3,3.2,6.8,4.3,11.2,4.4
		c-1.6,6.2-3.3,12.1-4.2,18.2c-0.3,1.9-1,2.5-2.9,2.6c-7.5,0.6-15.1,1.3-22.4,3.3c-1.8,0.5-4.6,0.8-4.6,2.7c0,2.1,2.8,2.4,4.7,2.9
		c7.9,2.1,16.1,2.9,24.2,3.5c29.6,2.2,59.3,2.2,88.9,0c8.6-0.7,17.4-1.4,25.7-3.9c1.4-0.5,3.4-0.9,3.3-2.4c0-1.5-2-2-3.4-2.3
		c-5.4-1.8-11-2.4-16.6-3.1c-5.9-0.7-5.9-0.7-6.1-6.2c0-0.7-0.1-1.5-0.1-2.3c0-6.3-1.7-12.5-1-18.8
		C142.4,120.9,142.6,120.7,142.8,120.5z"/>
	<path class="st1" d="M142.2,121c-0.7,6.3,1,12.6,1,18.8c0,0.7,0.1,1.5,0.1,2.3c0.2,5.6,0.2,5.6,6.1,6.2c5.6,0.7,11.2,1.3,16.6,3.1
		c1.4,0.5,3.4,0.9,3.4,2.3c0,1.5-2,2-3.3,2.4c-8.4,2.6-17,3.3-25.7,3.9c-29.6,2.2-59.3,2.2-88.9,0c-8.2-0.7-16.3-1.4-24.2-3.5
		c-1.9-0.5-4.7-0.7-4.7-2.9c0-1.9,2.8-2.2,4.6-2.7c7.3-2,14.8-2.7,22.4-3.3c1.9-0.2,2.7-0.7,2.9-2.6c0.9-6.1,2.6-12,4.2-18.2
		c-4.4,0-8.3-1.2-11.2-4.4c-2.9-3.1-4.2-6.8-3.8-11.3c-6.9,2.5-12.9,1.5-17.3-4.4c-3.9-5.1-3.7-10.6-0.4-16.1
		c-2.5-1.1-4.8-2.5-6.4-4.8c-0.6-0.7-1.2-0.7-2.1-0.7C9.2,85.5,5.4,82.6,4,76.5s0-11.9,2.4-17.4c3.2-7.8,8.2-14.4,15-19.6
		c0.7-0.6,1.3-0.9,1.1-2.1c-1.9-9.6,6.6-17.9,17.3-18.5c2.2-0.1,3.6-0.7,4.9-2.4c4-5.4,9.3-9.1,16.1-10.5c2.9-0.6,5.3,0.7,7.8,1.6
		c3.7,1.3,6.7,3.7,9.2,6.5c1,1.2,1.9,1.3,3.3,0.5c6-3.6,11.5-3.2,17,1.2c0.9,0.7,1.1,0.7,2-0.1c7.7-7.5,18.4-5.8,23.1,3.9
		c0.6,1.1,1,1.1,2.1,0.8c7.9-1.9,14.8,2.2,17,10c0.4,1.3,0.8,1.7,2.2,1.7c8.8,0.1,15.1,7.3,13.9,15.7c-0.2,1.4,0.2,1.8,1.5,2.2
		c10.5,3.4,13.2,16.5,4.8,23.7c-1.4,1.2-1.1,1.6,0,2.7c7,6.6,5.3,17.7-3.1,22.4c-0.7,0.4-2.1,0.3-1.1,2c3,5.9,2.3,11.7-1.9,16.1
		c-4.4,4.7-9.8,5.5-15.8,3.4C142.1,120.3,141.9,120.5,142.2,121z M93.8,50.5c0.1,0.9,0.2,1.9,0.3,2.7c1,6.8,1,13.6-0.1,20.4
		c-2.6,15.5-12.2,25.1-27.3,27c-16.5,2.2-30.2-6.3-35-22.1c-2-6.5-2.3-13.2-1.9-20c0.1-1.2,0.3-2.3-0.5-3.7c-0.3,1.1-0.5,2-0.7,2.9
		c-1,6.1-1.1,12.3-2.6,18.3c-0.7,2.9-1.8,5.5-4.4,7.4c-2.7,2-2.7,2.2,0.1,4.1c0.8,0.6,1.6,1.1,2.6,1.3c2.7,0.6,2.4,1.6,1.1,3.4
		C22.3,96.8,23,103,27,107c3.9,4,9.8,4.8,14.8,1.9c0.7-0.4,1.1-1.2,2-0.6c0.8,0.6,0.2,1.3,0.1,1.9c-1,5.3,0.7,9.7,5.3,12.7
		s9.3,2.5,13.9-0.7c1.8-1.2,4.1-0.3,4.4,1.9c1,5.8,4.6,9.6,9.8,10.5s9.7-1.3,12.7-6.3c0.3-0.6,0.5-1.4,1.3-1.3
		c0.8,0.1,0.9,0.7,1,1.3c2.6,5.2,6.8,8.1,11.8,7.6c5.6-0.6,9.2-3.5,10.9-8.9c0.2-0.7,0.2-1.5,1-1.6c0.9-0.1,1,0.7,1.3,1.4
		c3.2,5.8,8.7,8.3,14.5,6.3c5.9-2,9-7.5,8-14.1c-0.1-0.7-0.5-1.4,0.2-1.9c0.8-0.5,1.3,0.2,1.9,0.5c5.3,2.9,11.1,2.1,15-2
		c3.9-4.1,4.5-10.2,1.1-14.8c-1.3-2-1.1-2.5,1-3.3c4.5-1.6,7-4.8,7.7-9.4c0.7-4.7-1-8.6-4.8-11.5c-2.4-1.8-2.5-1.8,0.1-3.4
		c4.2-2.8,6.4-7.7,5.2-12.5c-1.1-4.9-4.3-8.2-9.3-9.2c-2.2-0.5-2.4-1.1-1.8-3c2-7.8-4.4-15.3-12.4-14.5c-2.3,0.2-2.9-0.4-3.2-2.5
		c-1.2-7.3-8.6-11.6-15.4-9c-2.4,0.8-2.9,0.2-3.5-1.8c-1.5-4.3-4.7-6.9-9.3-7.6c-4.7-0.7-8.6,0.7-11.2,4.5c-1.5,2-2.2,1.9-3.7,0.1
		c-3.6-4-9.6-4.8-13.6-2.2c10.3,3,15.8,9.7,16.3,20.1c0.1,0.9,0.5,1.3,1.2,1.8c6.4,4.3,11,10.2,14.3,16.9c3.5,7,5.6,14.4,3.9,22.3
		c-1.2,5.8-5.3,9.1-10.6,9c-6.2-0.1-10-3.2-11.3-9.2c-0.8-3.6-1-7.3-1-10.9C96.3,60.4,96,55.4,93.8,50.5z M33.1,49.4
		c-0.8,1.6-0.8,3.4-1,5c-1,9.4-1,18.7,2.9,27.7c4.3,10,14,16.8,23.9,16.7c-0.9-2-1.6-4-1.3-6.2c0.3-2.3-0.3-3.5-2.9-4.1
		c-2.8-0.6-5-2.2-7.1-4.1c-0.5-0.4-1-0.8-0.3-1.5c0.6-0.6,1-0.1,1.3,0.3c6.8,5.7,14.3,6.3,22.3,2.4c0.7-0.3,1.1-0.5,1.4,0.3
		c0.5,0.9-0.5,0.9-0.9,1.2c-2.5,1.4-5.1,2-7.9,2.5c-1.3,0.3-3.2-0.9-3.9,0.7c-0.5,1.2-0.2,2.9,0,4.3c0.1,1,0.6,2,1,2.9
		c0.4,1,1.1,1.5,2.5,1.5c8.6-0.3,16-2.9,21.8-9.3c3-3.4,3.4-7.1,2.1-11.2c-0.9-2.5-2.4-4.7-4.1-6.7c-0.4-0.5-1.1-0.8-1.1-1.8
		c5.6,1,7,1.6,10.4,4.2c1.5-7.4,1.2-14.6,0.2-22.1c-12.5,8.4-28.1,3-32.5-11.6C52.3,50.4,44.9,52.8,33.1,49.4z M98.1,35.8
		c0-10.3-8.2-18.6-18.4-18.6c-10.3-0.1-18.6,8.2-18.6,18.5s8.3,18.6,18.4,18.6C89.8,54.3,98.1,46,98.1,35.8z M58.6,35.5
		c0-4.3-1.5-7.4-4.3-9.9c-6.7-6.2-18.1-6.4-25.1-0.7c-6.8,5.6-6.7,14.5,0.2,20c6.6,5.2,16.8,5.3,23.6,0.4
		C56.4,42.8,58.6,39.3,58.6,35.5z M99.8,39.4c-0.7,2.9-1.7,5.6-3.4,7.9c-0.5,0.7-0.3,1.2-0.1,1.9c1.8,5.4,2.2,11,2.5,16.7
		c0.2,3.9,0.2,7.8,1.4,11.6c1.3,3.8,4.1,5.8,8.5,6c3.7,0.1,6.6-1.8,8.1-5.4c1.2-3.1,1.4-6.3,1-9.6c-1.6-10.9-6.7-19.9-15.1-27.2
		C101.8,40.5,101.1,39.8,99.8,39.4z M5.7,71.8c0.2,1.4,0.3,2.7,0.5,4c0.9,4.6,3.7,7.3,7.9,7.5c4.8,0.4,8.1-1.9,9.5-6.5
		c0.5-1.5,0.8-3,1-4.5c1-7,1-14.2,3.5-20.9c1.1-2.8,1.2-4.8-1.6-6.5c-1-0.7-1.7-2-2.3-3c-0.6-1-1-0.8-1.7-0.3
		C12.7,49.5,6.9,59.5,5.7,71.8z M74.1,146.3c16.2-0.6,32.1-0.5,48.5,0.2c-2.9-5.6-1.7-12.1-6.1-17.1c-6.2,11.6-19.9,10.7-25.5,1.1
		c-2.1,2.8-4.6,5.6-8,5.7c-4.8,0.2-6.3,3.1-7.4,6.7C75.3,144,74.8,145,74.1,146.3z M45.1,19.2c6.7,1.4,11.8,4.7,14.6,10.9
		c3.8-8.9,6.8-11.6,16.2-14.8C67.4,4.7,54.2,6.2,45.1,19.2z M53.9,153.3c0.5-0.3,0.8-0.4,0.9-0.6c5.1-7.6,8.1-16.3,11.2-24.8
		c0.5-1.2,0.2-2.9-0.9-3.7c-1.1-0.9-1.9,0.7-2.9,1c-0.3,0.1-0.6,0.4-1,0.5c-2,0.4-2.7,1.8-3.1,3.5c-0.8,3.5-1.9,7.1-2.6,10.6
		C54.6,144.2,53.6,148.5,53.9,153.3z M140.8,153c1.3-7.9,0.5-15.8-0.4-24.3c-1.5,2.4-3.1,4-5.1,5.2c-0.5,0.3-0.7,0.7-0.6,1.3
		C136.4,141.2,137.6,147.4,140.8,153z M67.6,153c3.9-4.7,5.9-10.3,8.3-15.6c0.3-0.7,0.1-1-0.5-1.1c-1.8-0.4-3.2-1.5-4.9-2.3
		C69.1,140.4,67.4,146.5,67.6,153z M121.2,134.1c1.7,6.6,2.9,13.1,6.2,19c1.3-5.5,0.7-10.9,0.5-16.4c0-0.7-0.4-0.8-1-0.9
		C124.9,135.7,123.2,134.8,121.2,134.1z M67.3,130.4c-2.3,5.6-4.6,11-6.8,16.5c1,0,1.9-0.1,2.8,0c2.2,0.3,2.9-0.7,3.2-2.8
		c0.5-3.3,1.1-6.5,2.1-9.7C69.1,132.6,68.6,131.5,67.3,130.4z M130.1,141.7c0,0,0,0.7,0,1.3c0.1,3.8,0.1,3.7,4,4
		c1.8,0.1,1.8-0.4,1.3-1.8c-0.9-2.8-1.5-5.6-2.3-8.4c-0.2-0.8,0.1-2.1-1.6-1.5c-1.1,0.4-2.2,0.5-1.8,2.1
		C130.1,138.7,130,139.9,130.1,141.7z M86.2,73.2c1.8,2.6,2.8,5.2,3.3,8.2C91.4,76.5,90.7,74.8,86.2,73.2z"/>
	<path class="st2" d="M93.8,50.5c2.1,4.8,2.5,9.9,2.8,15c0.2,3.6,0.3,7.4,1,10.9c1.3,6.1,5.2,9.2,11.3,9.2c5.3,0,9.4-3.3,10.6-9
		c1.7-7.9-0.5-15.2-3.9-22.3c-3.3-6.8-8-12.6-14.3-16.9c-0.7-0.5-1.1-0.8-1.2-1.8C99.5,25.2,94,18.5,83.7,15.6
		c3.9-2.6,9.9-1.8,13.6,2.2c1.6,1.8,2.3,1.9,3.7-0.1c2.8-3.6,6.7-5.2,11.2-4.5c4.6,0.7,7.8,3.4,9.3,7.6c0.7,2.1,1.1,2.7,3.5,1.8
		c6.8-2.5,14.2,1.9,15.4,9c0.4,2.1,1,2.7,3.2,2.5c8.1-0.7,14.4,6.8,12.4,14.5c-0.5,2-0.4,2.6,1.8,3c5.1,0.9,8.2,4.3,9.3,9.2
		c1.1,4.8-1,9.7-5.2,12.5c-2.5,1.7-2.5,1.6-0.1,3.4c3.8,2.9,5.5,6.7,4.8,11.5c-0.7,4.6-3.2,7.9-7.7,9.4c-2.2,0.7-2.5,1.4-1,3.3
		c3.3,4.7,2.7,10.7-1.1,14.8c-3.9,4.1-9.7,4.8-15,2c-0.6-0.3-1.1-1-1.9-0.5c-0.7,0.5-0.3,1.2-0.2,1.9c1,6.6-2.1,12.1-8,14.1
		c-5.8,1.9-11.3-0.6-14.5-6.3c-0.3-0.6-0.5-1.4-1.3-1.4c-0.9,0.1-0.9,0.9-1,1.6c-1.6,5.3-5.3,8.3-10.9,8.9
		c-4.9,0.5-9.2-2.4-11.8-7.6c-0.3-0.6-0.4-1.2-1-1.3c-1-0.1-1,0.7-1.3,1.3c-3,5-7.5,7.3-12.7,6.3s-8.8-4.8-9.8-10.5
		c-0.4-2.1-2.7-3.1-4.4-1.9c-4.5,3.2-9.2,3.6-13.9,0.7c-4.7-3-6.2-7.4-5.3-12.7c0.1-0.7,0.7-1.3-0.1-1.9c-0.9-0.7-1.4,0.2-2,0.6
		c-5,2.9-10.9,2.1-14.8-1.9c-3.9-4-4.6-10.2-1.4-14.8c1.3-1.9,1.5-2.9-1.1-3.4c-0.9-0.2-1.7-0.7-2.6-1.3c-2.8-1.9-2.8-2.1-0.1-4.1
		c2.5-1.9,3.7-4.5,4.4-7.4c1.4-6.1,1.5-12.2,2.6-18.3c0.2-0.9,0.4-1.8,0.7-2.9c0.8,1.3,0.6,2.5,0.5,3.7c-0.3,6.8-0.1,13.4,1.9,20
		c4.8,15.7,18.4,24.3,35,22.1c15.1-2.1,24.7-11.6,27.3-27c1.1-6.8,1.1-13.6,0.1-20.4C94,52.4,93.9,51.4,93.8,50.5z"/>
	<path class="st3" d="M33.1,49.4c11.9,3.4,19.2,1,26.6-8.8c4.4,14.5,20,19.9,32.5,11.6c1,7.5,1.3,14.7-0.2,22.1
		c-3.3-2.6-4.8-3.3-10.4-4.2c0,0.8,0.8,1.3,1.1,1.8c1.7,2.1,3.2,4.2,4.1,6.7c1.3,4.1,1,7.8-2.1,11.2c-5.8,6.4-13.2,9-21.8,9.3
		c-1.2,0-2-0.5-2.5-1.5c-0.4-0.9-0.9-2-1-2.9c-0.2-1.4-0.5-3.1,0-4.3c0.7-1.8,2.6-0.5,3.9-0.7c2.8-0.5,5.4-1.1,7.9-2.5
		c0.5-0.3,1.3-0.3,0.9-1.2c-0.4-0.7-0.9-0.6-1.4-0.3c-8,3.9-15.4,3.3-22.3-2.4c-0.4-0.3-0.7-0.8-1.3-0.3c-0.7,0.7-0.2,1,0.3,1.5
		c2.1,1.9,4.4,3.5,7.1,4.1c2.6,0.6,3.2,1.7,2.9,4.1c-0.3,2.1,0.5,4.2,1.3,6.2c-10,0.1-19.7-6.7-23.9-16.7C31.1,73.2,31,63.8,32,54.4
		C32.3,52.7,32.3,51,33.1,49.4z M77.8,75.2c-0.2-4,0.8-6.8,4.7-7.9c-2-1-3.7-0.9-5,0.3C75.7,69.1,75.7,71.2,77.8,75.2z"/>
	<path class="st3" d="M98.1,35.8c0,10.3-8.4,18.5-18.6,18.5c-10.2,0-18.5-8.4-18.4-18.6c0-10.3,8.5-18.5,18.6-18.5
		C90,17.2,98.2,25.5,98.1,35.8z M75.5,37.9c0-2.8-2.3-5.2-5.1-5.3c-2.9-0.1-5.5,2.3-5.5,5.2c0,2.8,2.3,5.2,5.1,5.3
		C73.1,43.2,75.5,40.9,75.5,37.9z"/>
	<path class="st3" d="M58.6,35.5c-0.1,3.8-2.2,7.2-5.7,9.8c-6.7,5-17,4.8-23.6-0.4c-6.9-5.5-7-14.4-0.2-20
		c7.1-5.8,18.5-5.5,25.1,0.7C57.1,28.1,58.6,31.2,58.6,35.5z M42.7,38.4c0.1,2.9,2.4,5.2,5.2,5.2c2.9,0,5.4-2.4,5.3-5.4
		c-0.1-2.9-2.5-5.2-5.3-5.2C45,32.9,42.7,35.4,42.7,38.4z"/>
	<path class="st3" d="M99.8,39.4c1.2,0.3,2,1.1,2.9,1.9c8.4,7.3,13.5,16.3,15.1,27.2c0.5,3.3,0.3,6.5-1,9.6
		c-1.4,3.5-4.4,5.5-8.1,5.4c-4.4-0.1-7.2-2.1-8.5-6c-1.2-3.8-1.2-7.7-1.4-11.6c-0.3-5.6-0.7-11.3-2.5-16.7c-0.2-0.7-0.4-1.2,0.1-1.9
		C98.1,45,99.2,42.3,99.8,39.4z"/>
	<path class="st3" d="M5.7,71.8c1.2-12.3,7-22.3,16.7-30.2c0.8-0.7,1.1-0.7,1.7,0.3c0.6,1.1,1.3,2.4,2.3,3c2.9,1.8,2.7,3.7,1.6,6.5
		c-2.7,6.7-2.5,13.9-3.5,20.9c-0.2,1.5-0.6,3-1,4.5c-1.4,4.7-4.7,6.9-9.5,6.5c-4.1-0.3-6.9-3-7.9-7.5C6,74.5,5.9,73.2,5.7,71.8z"/>
	<path class="st4" d="M74.1,146.3c0.7-1.4,1.2-2.3,1.5-3.4c1.1-3.6,2.6-6.5,7.4-6.7c3.4-0.1,5.9-2.9,8-5.7
		c5.6,9.7,19.3,10.4,25.5-1.1c4.4,4.9,3.3,11.5,6.1,17.1C106.2,145.8,90.3,145.7,74.1,146.3z"/>
	<path class="st3" d="M45.1,19.2c9-13,22.2-14.6,30.9-3.8c-9.4,3.2-12.4,5.9-16.2,14.8C57,23.9,51.9,20.7,45.1,19.2z"/>
	<path class="st3" d="M53.9,153.3c-0.3-4.8,0.9-9.1,1.7-13.4c0.8-3.5,1.8-7.1,2.6-10.6c0.4-1.9,1.1-3.2,3.1-3.5
		c0.3-0.1,0.6-0.4,1-0.5c1-0.3,1.8-2,2.9-1c1,0.8,1.2,2.6,0.9,3.7c-3.1,8.6-6.2,17.1-11.2,24.8C54.5,152.9,54.3,152.9,53.9,153.3z"
		/>
	<path class="st3" d="M140.8,153c-3.2-5.6-4.4-11.8-6-17.9c-0.2-0.6,0-0.9,0.6-1.3c2-1.2,3.6-2.8,5.1-5.2
		C141.3,137.2,142.1,145.1,140.8,153z"/>
	<path class="st3" d="M67.6,153c-0.3-6.5,1.4-12.7,2.9-19c1.7,0.7,3.1,2,4.9,2.3c0.6,0.1,0.8,0.5,0.5,1.1
		C73.5,142.9,71.5,148.4,67.6,153z"/>
	<path class="st3" d="M121.2,134.1c2.1,0.7,3.7,1.6,5.7,1.7c0.6,0,1,0.3,1,0.9c0.3,5.5,0.9,10.9-0.5,16.4
		C124.1,147.2,122.8,140.7,121.2,134.1z"/>
	<path class="st4" d="M67.3,130.4c1.3,1.1,1.8,2.2,1.2,4c-1,3.2-1.7,6.4-2.1,9.7c-0.3,2.1-1,3.1-3.2,2.8c-0.9-0.1-1.7,0-2.8,0
		C62.7,141.4,65,136,67.3,130.4z"/>
	<path class="st4" d="M130.1,141.7c-0.1-2,0-3.2-0.3-4.3c-0.4-1.7,0.8-1.7,1.8-2.1c1.7-0.6,1.4,0.7,1.6,1.5c0.8,2.8,1.4,5.6,2.3,8.4
		c0.5,1.4,0.4,2-1.3,1.8c-3.9-0.3-3.9-0.2-4-4C130.1,142.4,130.1,141.7,130.1,141.7z"/>
	<path class="st5" d="M86.2,73.2c4.6,1.6,5.2,3.4,3.3,8.2C88.9,78.4,88,75.9,86.2,73.2z"/>
	<path class="st6" d="M142.2,121c-0.4-0.7-0.2-0.8,0.5-0.6C142.6,120.7,142.4,120.9,142.2,121z"/>
	<path class="st1" d="M77.8,75.2c-2-4-2.1-6.1-0.4-7.6c1.3-1.2,3-1.3,5-0.3C78.6,68.4,77.6,71.2,77.8,75.2z"/>
	<path class="st7" d="M75.5,37.9c0,3-2.6,5.3-5.5,5.2c-2.9-0.1-5.2-2.5-5.1-5.3c0-2.9,2.6-5.3,5.5-5.2
		C73.2,32.7,75.6,35.1,75.5,37.9z"/>
	<path class="st8" d="M42.7,38.4c-0.1-3,2.4-5.5,5.3-5.4c2.9,0,5.2,2.4,5.3,5.2c0.1,3-2.4,5.4-5.3,5.4C45,43.6,42.8,41.3,42.7,38.4z
		"/>
</g>
</svg>
