<?xml version="1.0" encoding="utf-8"?>
<!-- Generator: Adobe Illustrator 21.1.0, SVG Export Plug-In . SVG Version: 6.00 Build 0)  -->
<svg version="1.1" id="Layer_1" xmlns="http://www.w3.org/2000/svg" xmlns:xlink="http://www.w3.org/1999/xlink" x="0px" y="0px"
	 viewBox="0 0 523.9 428.3" style="enable-background:new 0 0 523.9 428.3;" xml:space="preserve">
<style type="text/css">
	.st0{fill:#AAB3D4;stroke:#000000;stroke-miterlimit:10;}
	.st1{display:none;fill:#AAB3D4;stroke:#000000;stroke-miterlimit:10;}
	.st2{fill:#FFFFFF;stroke:#000000;stroke-miterlimit:10;}
	.st3{fill:#484759;stroke:#000000;stroke-miterlimit:10;}
</style>
<image style="display:none;overflow:visible;" width="581" height="482" xlink:href="../../../../Desktop/veebirakendused/loom.jpg"  transform="matrix(1 0 0 1 -579.3281 -61.0652)">
</image>
<path id="keha" class="st0" d="M198.3,156.6c-7-27.3-5.4-38.6-2.7-44.7c5.3-12,5.3-6.9,7-23.3c1.3-12.7,8.7-42.5,18.5-55
	c2-2.5,10.1-11.2,21.5-15.5c7.9-2.9,18.6-4.5,31.3-3.2c12.7,1.3,41.3,9,52.3,27.3s5.7,49.7-1.3,64s-19.3,45-14,55
	c5.3,10-5,13.7,15.7,17.3c20.7,3.7,12.7,41.3,7.7,43.7c-5,2.3-15.7,23.3-34.3,24.7c-18.7,1.3-34.3,14-61.3,0s-43-9-57.7-23.3
	c-14.7-14.3-32.7,0.7-37-21c-4.3-21.7,17.3-31.5,23-33.5C172.6,167.1,198.3,156.6,198.3,156.6z"/>
<path id="sõrg1" class="st0" d="M166.9,169.1c-22.3,5-34,7.8-40.3,5.7c-11.8-4-13.7-6-12.7-14.3l3.2-6.7c1.3-2.2,7.5-10.4,8.6-14.2
	c1.2-4.3,2.3-5.5,2.5-13.8c0.2-12.1-1.8-17.4-6.7-20.3c-7.4-4.6-14.5-5-22-3s-10.5,3.5-17.5,10s0,7,0,7s5.4-3.6,12-6
	c6.5-2.3,9-0.8,14.3,3.1c4.2,3.2,6,2.9,3.8,13.4c-2.3,10.7-4.2,12.2-9,17c-8.6,8.6-8,18.6-5,28c3.1,9.6,2.5,11.5,12,17.5
	s36,15,44.5,12"/>
<path class="st1" d="M-116.9,107.9"/>
<path class="st0" d="M166.9,179.9c0,0-41.8,11.7-56.3,25.1s-17,15.1-19.5,26.4c-2.6,11.8-1.8,19.3-0.1,37.5c1.2,13.4-4.1,23-12,28.5
	s-14.6,3.6-18.4,3c-11.5-1.8-17.4-12.7-18.3-18.3c-0.8-5.4-1.3-8.6,1.8-12.3c3.2-3.8,8.7-4.1,8.7-4.1c8.3-0.2,12.9,10,13.4,6.5
	s0-14.5-7.5-16.5c-8-2.1-16.1,0.1-20.7,4.2c-4.7,4.2-6.7,6-7.5,16.5c-0.8,10.5,3.3,19.6,5.5,25.2c1.8,4.7,7.1,13.1,12.8,15.2
	c6.6,2.3,11.3,3.7,25.2,2.2c13.8-1.5,14.1-3.2,21.3-6.7c7.7-3.7,9.6-10.7,13.7-21.8c6-16.3,15.5-55.6,25.2-61.5
	c10.2-6.2,28.8-13,43.5-27.5"/>
<path id="sõrg2" class="st0" d="M231.4,233.8c-46.7,34.5-50.7,33.7-55.8,31.3c-34.9-15.9-16.8,10.8-47.6,9.2
	c-23.8-1.3-26.5-2.5-35.9-8.5c-8.7-5.6-22.9-15.2-24.4-31.8c-1.5-16.6-4.8-31.1-13.8-32.6s-15.7,0.6-21.1,7.9
	c-13.1,17.8,2.9,21.5,5.9,17s6.5-9,6.5-9c2.1-2.8,7.2-4.7-1.3,13.4c-7,15.1-20.5,12.5-30.5,2.8c-5.6-5.5-4.5-15.5-0.8-25.4
	c6.6-17.3,29.4-23.8,41.9-24.6c11.4-0.8,16.6,2.3,20.6,6c17,15.5,19,49.6,54.5,49.1s43.8-29.9,67.8-40.2"/>
<path class="st0" d="M186.9,186.4c-24,13.3-50,46.9-51.2,68.1c-2.9,50.8,20.2,57,26.9,82.4c5.3,20-4.1,26.9-13.6,34.9
	c-9.5,8-15.9,11.6-24.9,11.1s-15-0.5-20.5-7s-7.1-9.8-6.1-14.8s8.3-7.2,11.6-1.3c7.6,13.7,8.2-15.9-2.4-19
	c-8.4-2.4-25.2,8.4-26.1,19.8c-0.3,3.4,2.2,11.3,7,17.3c9.9,12.3,17.5,25.4,43,26.9c38.8,2.3,53.7-26.6,58-37.9
	c2.7-7,13.2-25.8,4-50c-3.7-9.6-15.1-33-15-43c0.2-19.8,23.2-54.5,35.2-61.5"/>
<path class="st0" d="M213.6,218.4c3.6,46.9,23.3,66,34.5,75c13.5,10.9,41.5,20.2,35.5,34.5c-5.3,12.8-57.4,23-66.5,40
	c-5.2,9.7-1.4,27.1,12.5,33.7c15.3,7.2,36.4,12.4,42.6-1.9c5.3-12-10.6-33-9.4-5.1c0.6,13.1-36-5.8-30.5-14.8s41.7-20,54.3-23.3
	c16.5-4.3,38.5-8.1,33.5-49.6c-2.8-22.9-54.9-41-55-59.5"/>
<path class="st0" d="M261.6,220.4c0,0,32.6,18.2,52,31.6c21,14.5,53.9,48.6,54.8,59.6c1.1,13.3-24.3,43.3-29.3,52.8
	c-6.7,12.8-6.5,39,17,48.8c28.3,11.8,40.1-10.3,41.6-16c1.6-5.7,0.5-13-4.3-16.2c-17.9-12,18.4,19-20.7,22.7
	c-10.7,1-18.2-12.3-17-23.2c1.3-12.3,16.5-26.1,30.8-40c18.2-17.6,11.1-42.3,9-51.7c-5.2-22.8-8.2-27.8-30.9-52.9
	c-21.1-23.2-8.4-12.4-32.9-28"/>
<path class="st0" d="M310.6,222.9c50.7,9,51.5,11,67.5,17s49.7,48.3,59.7,51.3s32.8,10.7,49.3-6.8s16.5-24.6,17.7-36.7
	c1.2-11.9-2.3-29-21.2-35.3c-39.5-13.3-45.2,34.7-28.2,38.3c5.3,1.1-2.7-23.4,8.2-22.3c35.8,3.7,16,43.1,3.3,42.7
	c-13.1-0.5-29.2-4-36.3-17.6c-12.8-24.4-48.9-40.8-60.5-45.6c-25.2-10.3-67-5.5-74.5-12"/>
<path class="st0" d="M299.3,180.4c0,0,34.8,4.8,45.8-1.7s16.7-6.7,14.7-29.7s-1-32.7,0.3-42c1.3-9,10.7-22.1,28-24.5
	c20.2-2.8,37.6-1.1,49.1,11.9s19.9,34.4,19.4,44.4s-13.9,27.3-28.8,23c-7-2-17.5-6.6-15.7-16.7c1.9-10.4,5.8-12.8,13.7-13
	c8-0.2-23.8,17.5,10,21.3c11.8,1.3,6.3-32.8-7-41.3c-7.8-5-24-8.3-32.8-6.8c-26.3,4.5,5.8,54.3-15.5,88.5
	c-11.6,18.6-54.7,24.5-89.7,13"/>
<path class="st1" d="M43.6,126.9"/>
<ellipse class="st2" cx="219.7" cy="96.9" rx="28.1" ry="32.4"/>
<ellipse class="st2" cx="295.6" cy="106.6" rx="31.1" ry="35.6"/>
<ellipse class="st3" cx="223.7" cy="102.7" rx="15.6" ry="14.1"/>
<circle class="st3" cx="295.6" cy="111.1" r="15.2"/>
<path class="st3" d="M290.8,152c0,0-5.7,5.3-25.1,6.7c-18.5,1.3-34.7-3.8-38.2-8l32.5,2.6L290.8,152z"/>
</svg>
